<svg width="820" height="300" viewBox="0 0 820 300" fill="none" xmlns="http://www.w3.org/2000/svg" role="img" aria-labelledby="title desc">
  <title id="title">Repository traffic graph</title>
  <desc id="desc">Daily GitHub views and clones for Mihik30/OpenQuiz-AI. Last updated 2026-07-21T06:05:13Z.</desc>
  <rect width="820" height="300" rx="8" fill="#0f172a"/>
  <text x="32" y="38" fill="#f8fafc" font-family="Segoe UI, Arial, sans-serif" font-size="24" font-weight="700">Repository Traffic</text>
  <text x="32" y="62" fill="#94a3b8" font-family="Segoe UI, Arial, sans-serif" font-size="13">Mihik30/OpenQuiz-AI - 2026-06-21 to 2026-07-20</text>
  <line x1="54" y1="220" x2="766" y2="220" stroke="#334155" stroke-width="1"/>
  <line x1="54" y1="88" x2="54" y2="220" stroke="#334155" stroke-width="1"/>
  <polyline points="54.0,220 78.55,220 103.1,220 127.66,220 152.20999999999998,220 176.76,220 201.31,220 225.86,220 250.41,220 274.97,220 299.52,220 324.07,206 348.62,220 373.17,220 397.72,213 422.28,220 446.83,220 471.38,206 495.93,206 520.48,213 545.03,213 569.59,213 594.14,220 618.69,220 643.24,206 667.79,220 692.34,206 716.9,220 741.45,213 766.0,220" fill="none" stroke="#38bdf8" stroke-width="4" stroke-linecap="round" stroke-linejoin="round"/>
  <polyline points="54.0,88 78.55,116 103.1,151 127.66,157 152.20999999999998,109 176.76,171 201.31,137 225.86,88 250.41,164 274.97,130 299.52,116 324.07,151 348.62,151 373.17,185 397.72,130 422.28,130 446.83,144 471.38,192 495.93,178 520.48,199 545.03,206 569.59,192 594.14,137 618.69,116 643.24,171 667.79,123 692.34,206 716.9,137 741.45,130 766.0,185" fill="none" stroke="#34d399" stroke-width="4" stroke-linecap="round" stroke-linejoin="round"/>
  <circle cx="608" cy="38" r="5" fill="#38bdf8"/>
  <text x="620" y="43" fill="#cbd5e1" font-family="Segoe UI, Arial, sans-serif" font-size="13">Views</text>
  <circle cx="682" cy="38" r="5" fill="#34d399"/>
  <text x="694" y="43" fill="#cbd5e1" font-family="Segoe UI, Arial, sans-serif" font-size="13">Clones</text>
  <text x="32" y="252" fill="#f8fafc" font-family="Segoe UI, Arial, sans-serif" font-size="18" font-weight="700">23</text>
  <text x="32" y="272" fill="#94a3b8" font-family="Segoe UI, Arial, sans-serif" font-size="13">saved views (15 unique)</text>
  <text x="272" y="252" fill="#f8fafc" font-family="Segoe UI, Arial, sans-serif" font-size="18" font-weight="700">373</text>
  <text x="272" y="272" fill="#94a3b8" font-family="Segoe UI, Arial, sans-serif" font-size="13">saved clones (253 unique)</text>
  <text x="564" y="252" fill="#f8fafc" font-family="Segoe UI, Arial, sans-serif" font-size="18" font-weight="700">45</text>
  <text x="564" y="272" fill="#94a3b8" font-family="Segoe UI, Arial, sans-serif" font-size="13">saved days</text>
  <text x="32" y="292" fill="#64748b" font-family="Segoe UI, Arial, sans-serif" font-size="11">Updated: 2026-07-21T06:05:13Z</text>
</svg>
