<svg width="820" height="300" viewBox="0 0 820 300" fill="none" xmlns="http://www.w3.org/2000/svg" role="img" aria-labelledby="title desc">
  <title id="title">Repository traffic graph</title>
  <desc id="desc">Daily GitHub views and clones for Mihik30/OpenQuiz-AI. Last updated 2026-07-13T06:29:13Z.</desc>
  <rect width="820" height="300" rx="8" fill="#0f172a"/>
  <text x="32" y="38" fill="#f8fafc" font-family="Segoe UI, Arial, sans-serif" font-size="24" font-weight="700">Repository Traffic</text>
  <text x="32" y="62" fill="#94a3b8" font-family="Segoe UI, Arial, sans-serif" font-size="13">Mihik30/OpenQuiz-AI - 2026-06-13 to 2026-07-12</text>
  <line x1="54" y1="220" x2="766" y2="220" stroke="#334155" stroke-width="1"/>
  <line x1="54" y1="88" x2="54" y2="220" stroke="#334155" stroke-width="1"/>
  <polyline points="54.0,220 78.55,220 103.1,220 127.66,217 152.20999999999998,220 176.76,220 201.31,220 225.86,207 250.41,220 274.97,220 299.52,220 324.07,220 348.62,220 373.17,220 397.72,220 422.28,220 446.83,220 471.38,220 495.93,220 520.48,215 545.03,220 569.59,220 594.14,217 618.69,220 643.24,220 667.79,215 692.34,215 716.9,217 741.45,217 766.0,217" fill="none" stroke="#38bdf8" stroke-width="4" stroke-linecap="round" stroke-linejoin="round"/>
  <polyline points="54.0,215 78.55,220 103.1,217 127.66,220 152.20999999999998,215 176.76,207 201.31,220 225.86,88 250.41,170 274.97,180 299.52,194 324.07,196 348.62,178 373.17,202 397.72,188 422.28,170 446.83,199 471.38,186 495.93,180 520.48,194 545.03,194 569.59,207 594.14,186 618.69,186 643.24,191 667.79,209 692.34,204 716.9,212 741.45,215 766.0,209" fill="none" stroke="#34d399" stroke-width="4" stroke-linecap="round" stroke-linejoin="round"/>
  <circle cx="608" cy="38" r="5" fill="#38bdf8"/>
  <text x="620" y="43" fill="#cbd5e1" font-family="Segoe UI, Arial, sans-serif" font-size="13">Views</text>
  <circle cx="682" cy="38" r="5" fill="#34d399"/>
  <text x="694" y="43" fill="#cbd5e1" font-family="Segoe UI, Arial, sans-serif" font-size="13">Clones</text>
  <text x="32" y="252" fill="#f8fafc" font-family="Segoe UI, Arial, sans-serif" font-size="18" font-weight="700">18</text>
  <text x="32" y="272" fill="#94a3b8" font-family="Segoe UI, Arial, sans-serif" font-size="13">saved views (12 unique)</text>
  <text x="272" y="252" fill="#f8fafc" font-family="Segoe UI, Arial, sans-serif" font-size="18" font-weight="700">293</text>
  <text x="272" y="272" fill="#94a3b8" font-family="Segoe UI, Arial, sans-serif" font-size="13">saved clones (201 unique)</text>
  <text x="564" y="252" fill="#f8fafc" font-family="Segoe UI, Arial, sans-serif" font-size="18" font-weight="700">37</text>
  <text x="564" y="272" fill="#94a3b8" font-family="Segoe UI, Arial, sans-serif" font-size="13">saved days</text>
  <text x="32" y="292" fill="#64748b" font-family="Segoe UI, Arial, sans-serif" font-size="11">Updated: 2026-07-13T06:29:13Z</text>
</svg>
