<svg width="820" height="300" viewBox="0 0 820 300" fill="none" xmlns="http://www.w3.org/2000/svg" role="img" aria-labelledby="title desc">
  <title id="title">Repository traffic graph</title>
  <desc id="desc">Daily GitHub views and clones for Mihik30/OpenQuiz-AI. Last updated 2026-08-23T03:59:18Z.</desc>
  <rect width="820" height="300" rx="8" fill="#0f172a"/>
  <text x="32" y="38" fill="#f8fafc" font-family="Segoe UI, Arial, sans-serif" font-size="24" font-weight="700">Repository Traffic</text>
  <text x="32" y="62" fill="#94a3b8" font-family="Segoe UI, Arial, sans-serif" font-size="13">Mihik30/OpenQuiz-AI - 2026-07-23 to 2026-08-21</text>
  <line x1="54" y1="220" x2="766" y2="220" stroke="#334155" stroke-width="1"/>
  <line x1="54" y1="88" x2="54" y2="220" stroke="#334155" stroke-width="1"/>
  <polyline points="54.0,220 78.55,220 103.1,220 127.66,220 152.20999999999998,220 176.76,220 201.31,220 225.86,220 250.41,220 274.97,220 299.52,220 324.07,220 348.62,220 373.17,220 397.72,209 422.28,198 446.83,209 471.38,220 495.93,220 520.48,198 545.03,220 569.59,220 594.14,209 618.69,209 643.24,220 667.79,209 692.34,220 716.9,220 741.45,220 766.0,198" fill="none" stroke="#38bdf8" stroke-width="4" stroke-linecap="round" stroke-linejoin="round"/>
  <polyline points="54.0,198 78.55,143 103.1,176 127.66,176 152.20999999999998,187 176.76,187 201.31,198 225.86,187 250.41,187 274.97,110 299.52,198 324.07,187 348.62,187 373.17,209 397.72,176 422.28,187 446.83,99 471.38,187 495.93,198 520.48,165 545.03,198 569.59,176 594.14,143 618.69,88 643.24,198 667.79,99 692.34,176 716.9,176 741.45,132 766.0,187" fill="none" stroke="#34d399" stroke-width="4" stroke-linecap="round" stroke-linejoin="round"/>
  <circle cx="608" cy="38" r="5" fill="#38bdf8"/>
  <text x="620" y="43" fill="#cbd5e1" font-family="Segoe UI, Arial, sans-serif" font-size="13">Views</text>
  <circle cx="682" cy="38" r="5" fill="#34d399"/>
  <text x="694" y="43" fill="#cbd5e1" font-family="Segoe UI, Arial, sans-serif" font-size="13">Clones</text>
  <text x="32" y="252" fill="#f8fafc" font-family="Segoe UI, Arial, sans-serif" font-size="18" font-weight="700">34</text>
  <text x="32" y="272" fill="#94a3b8" font-family="Segoe UI, Arial, sans-serif" font-size="13">saved views (25 unique)</text>
  <text x="272" y="252" fill="#f8fafc" font-family="Segoe UI, Arial, sans-serif" font-size="18" font-weight="700">514</text>
  <text x="272" y="272" fill="#94a3b8" font-family="Segoe UI, Arial, sans-serif" font-size="13">saved clones (367 unique)</text>
  <text x="564" y="252" fill="#f8fafc" font-family="Segoe UI, Arial, sans-serif" font-size="18" font-weight="700">77</text>
  <text x="564" y="272" fill="#94a3b8" font-family="Segoe UI, Arial, sans-serif" font-size="13">saved days</text>
  <text x="32" y="292" fill="#64748b" font-family="Segoe UI, Arial, sans-serif" font-size="11">Updated: 2026-08-23T03:59:18Z</text>
</svg>
