<svg width="820" height="300" viewBox="0 0 820 300" fill="none" xmlns="http://www.w3.org/2000/svg" role="img" aria-labelledby="title desc">
  <title id="title">Repository traffic graph</title>
  <desc id="desc">Daily GitHub views and clones for Mihik30/OpenQuiz-AI. Last updated 2026-07-20T06:25:04Z.</desc>
  <rect width="820" height="300" rx="8" fill="#0f172a"/>
  <text x="32" y="38" fill="#f8fafc" font-family="Segoe UI, Arial, sans-serif" font-size="24" font-weight="700">Repository Traffic</text>
  <text x="32" y="62" fill="#94a3b8" font-family="Segoe UI, Arial, sans-serif" font-size="13">Mihik30/OpenQuiz-AI - 2026-06-20 to 2026-07-19</text>
  <line x1="54" y1="220" x2="766" y2="220" stroke="#334155" stroke-width="1"/>
  <line x1="54" y1="88" x2="54" y2="220" stroke="#334155" stroke-width="1"/>
  <polyline points="54.0,207 78.55,220 103.1,220 127.66,220 152.20999999999998,220 176.76,220 201.31,220 225.86,220 250.41,220 274.97,220 299.52,220 324.07,220 348.62,215 373.17,220 397.72,220 422.28,217 446.83,220 471.38,220 495.93,215 520.48,215 545.03,217 569.59,217 594.14,217 618.69,220 643.24,220 667.79,215 692.34,220 716.9,215 741.45,220 766.0,217" fill="none" stroke="#38bdf8" stroke-width="4" stroke-linecap="round" stroke-linejoin="round"/>
  <polyline points="54.0,88 78.55,170 103.1,180 127.66,194 152.20999999999998,196 176.76,178 201.31,202 225.86,188 250.41,170 274.97,199 299.52,186 324.07,180 348.62,194 373.17,194 397.72,207 422.28,186 446.83,186 471.38,191 495.93,209 520.48,204 545.03,212 569.59,215 594.14,209 618.69,188 643.24,180 667.79,202 692.34,183 716.9,215 741.45,188 766.0,186" fill="none" stroke="#34d399" stroke-width="4" stroke-linecap="round" stroke-linejoin="round"/>
  <circle cx="608" cy="38" r="5" fill="#38bdf8"/>
  <text x="620" y="43" fill="#cbd5e1" font-family="Segoe UI, Arial, sans-serif" font-size="13">Views</text>
  <circle cx="682" cy="38" r="5" fill="#34d399"/>
  <text x="694" y="43" fill="#cbd5e1" font-family="Segoe UI, Arial, sans-serif" font-size="13">Clones</text>
  <text x="32" y="252" fill="#f8fafc" font-family="Segoe UI, Arial, sans-serif" font-size="18" font-weight="700">23</text>
  <text x="32" y="272" fill="#94a3b8" font-family="Segoe UI, Arial, sans-serif" font-size="13">saved views (15 unique)</text>
  <text x="272" y="252" fill="#f8fafc" font-family="Segoe UI, Arial, sans-serif" font-size="18" font-weight="700">368</text>
  <text x="272" y="272" fill="#94a3b8" font-family="Segoe UI, Arial, sans-serif" font-size="13">saved clones (249 unique)</text>
  <text x="564" y="252" fill="#f8fafc" font-family="Segoe UI, Arial, sans-serif" font-size="18" font-weight="700">44</text>
  <text x="564" y="272" fill="#94a3b8" font-family="Segoe UI, Arial, sans-serif" font-size="13">saved days</text>
  <text x="32" y="292" fill="#64748b" font-family="Segoe UI, Arial, sans-serif" font-size="11">Updated: 2026-07-20T06:25:04Z</text>
</svg>
