<svg width="820" height="300" viewBox="0 0 820 300" fill="none" xmlns="http://www.w3.org/2000/svg" role="img" aria-labelledby="title desc">
  <title id="title">Repository traffic graph</title>
  <desc id="desc">Daily GitHub views and clones for Mihik30/OpenQuiz-AI. Last updated 2026-07-24T06:03:33Z.</desc>
  <rect width="820" height="300" rx="8" fill="#0f172a"/>
  <text x="32" y="38" fill="#f8fafc" font-family="Segoe UI, Arial, sans-serif" font-size="24" font-weight="700">Repository Traffic</text>
  <text x="32" y="62" fill="#94a3b8" font-family="Segoe UI, Arial, sans-serif" font-size="13">Mihik30/OpenQuiz-AI - 2026-06-23 to 2026-07-22</text>
  <line x1="54" y1="220" x2="766" y2="220" stroke="#334155" stroke-width="1"/>
  <line x1="54" y1="88" x2="54" y2="220" stroke="#334155" stroke-width="1"/>
  <polyline points="54.0,220 78.55,220 103.1,220 127.66,220 152.20999999999998,220 176.76,220 201.31,220 225.86,220 250.41,220 274.97,206 299.52,220 324.07,220 348.62,213 373.17,220 397.72,220 422.28,206 446.83,206 471.38,213 495.93,213 520.48,213 545.03,220 569.59,220 594.14,206 618.69,220 643.24,206 667.79,220 692.34,213 716.9,220 741.45,220 766.0,220" fill="none" stroke="#38bdf8" stroke-width="4" stroke-linecap="round" stroke-linejoin="round"/>
  <polyline points="54.0,151 78.55,157 103.1,109 127.66,171 152.20999999999998,137 176.76,88 201.31,164 225.86,130 250.41,116 274.97,151 299.52,151 324.07,185 348.62,130 373.17,130 397.72,144 422.28,192 446.83,178 471.38,199 495.93,206 520.48,192 545.03,137 569.59,116 594.14,171 618.69,123 643.24,206 667.79,137 692.34,130 716.9,185 741.45,199 766.0,199" fill="none" stroke="#34d399" stroke-width="4" stroke-linecap="round" stroke-linejoin="round"/>
  <circle cx="608" cy="38" r="5" fill="#38bdf8"/>
  <text x="620" y="43" fill="#cbd5e1" font-family="Segoe UI, Arial, sans-serif" font-size="13">Views</text>
  <circle cx="682" cy="38" r="5" fill="#34d399"/>
  <text x="694" y="43" fill="#cbd5e1" font-family="Segoe UI, Arial, sans-serif" font-size="13">Clones</text>
  <text x="32" y="252" fill="#f8fafc" font-family="Segoe UI, Arial, sans-serif" font-size="18" font-weight="700">23</text>
  <text x="32" y="272" fill="#94a3b8" font-family="Segoe UI, Arial, sans-serif" font-size="13">saved views (15 unique)</text>
  <text x="272" y="252" fill="#f8fafc" font-family="Segoe UI, Arial, sans-serif" font-size="18" font-weight="700">379</text>
  <text x="272" y="272" fill="#94a3b8" font-family="Segoe UI, Arial, sans-serif" font-size="13">saved clones (259 unique)</text>
  <text x="564" y="252" fill="#f8fafc" font-family="Segoe UI, Arial, sans-serif" font-size="18" font-weight="700">47</text>
  <text x="564" y="272" fill="#94a3b8" font-family="Segoe UI, Arial, sans-serif" font-size="13">saved days</text>
  <text x="32" y="292" fill="#64748b" font-family="Segoe UI, Arial, sans-serif" font-size="11">Updated: 2026-07-24T06:03:33Z</text>
</svg>
